<svg width="128" height="192" xmlns="http://www.w3.org/2000/svg"><g fill="none" fill-rule="evenodd"><path fill="#552049" d="M0 0h64v128H0z"/><circle stroke="#FFF7F0" stroke-width="4" cx="32" cy="32" r="14"/><g transform="translate(32 32)"><rect fill="#F6A560" x="32" width="64" height="32" rx="16"/><path fill="#61C4B7" d="m0 128 32 32v-32zM32 96l32 32V96z"/><circle stroke="#FFF7F0" stroke-width="4" cx="80" cy="16" r="14"/><circle stroke="#FFF7F0" stroke-width="4" cx="80" cy="16" r="14"/></g><g fill="#030303"><path d="M64 14h4v4h-4zM68 14h4v4h-4zM92 14h4v4h-4z"/></g><path fill="#755CDE" d="m96 0 32 32V0z"/><g fill="#030303"><path d="M96 14h4v4h-4zM120 14h4v4h-4zM124 14h4v4h-4z"/></g><circle stroke="#030303" stroke-width="4" cx="80" cy="80" r="14"/><path fill="#EB7565" d="M96 64h32v32H96z"/><path fill="#FFF7F0" d="m32 96 96 96V96z"/><g fill="#030303"><path d="M0 128h4v4H0zM14 128h4v4h-4zM28 128h4v4h-4zM0 142h4v4H0zM14 142h4v4h-4zM28 142h4v4h-4z"/><g><path d="M0 156h4v4H0zM14 156h4v4h-4zM28 156h4v4h-4z"/></g></g></g></svg>