<svg xmlns="http://www.w3.org/2000/svg" xmlns:xlink="http://www.w3.org/1999/xlink" version="1.1" width="162" height="118" viewBox="-0.01 0 909.1 606.06">
<desc>Created with Fabric.js 3.5.0</desc>
<defs>
</defs>
<rect x="0" y="0" width="100%" height="100%" fill="#ffffff" fill-opacity="0.00001"/>
<g transform="matrix(5.6117 0 0 5.6117 454.5477 303.0318)" id="724572">
<g style="" vector-effect="non-scaling-stroke">
		<g transform="matrix(1 0 0 1 -2.1835 0.0415)">
<path style="stroke: none; stroke-width: 1; stroke-dasharray: none; stroke-linecap: butt; stroke-dashoffset: 0; stroke-linejoin: miter; stroke-miterlimit: 4; is-custom-font: none; font-file-url: none; fill: rgb(230,230,230); fill-rule: nonzero; opacity: 1;" transform=" translate(-78.8165, -54.0415)" d="M 30 93.744 h -0.044 a 23.456 23.456 0 0 1 -1.61 -0.189 a 0.543 0.543 0 0 1 0.155 -1.076 c 0.52 0.076 1.04 0.135 1.563 0.178 a 0.538 0.538 0 0 1 -0.043 1.076 l -0.022 0.01 Z m 5.37 -0.205 a 0.538 0.538 0 0 1 -0.08 -1.076 a 19.51 19.51 0 0 0 1.54 -0.306 a 0.536 0.536 0 0 1 0.645 0.403 a 0.538 0.538 0 0 1 -0.397 0.646 c -0.537 0.129 -1.074 0.236 -1.611 0.323 l -0.097 0.01 Z m -12.137 -1.312 a 0.536 0.536 0 0 1 -0.183 -0.033 a 24.346 24.346 0 0 1 -1.525 -0.608 a 0.539 0.539 0 0 1 0.424 -0.99 c 0.483 0.21 0.983 0.404 1.472 0.587 a 0.538 0.538 0 0 1 -0.188 1.044 Z m 18.759 -0.829 a 0.538 0.538 0 0 1 -0.242 -1.022 c 0.467 -0.226 0.934 -0.479 1.39 -0.742 a 0.536 0.536 0 1 1 0.538 0.93 c -0.478 0.275 -0.967 0.538 -1.45 0.78 a 0.536 0.536 0 0 1 -0.258 0.054 h 0.022 Z m -24.994 -2.292 a 0.536 0.536 0 0 1 -0.29 -0.08 c -0.457 -0.29 -0.913 -0.597 -1.36 -0.91 a 0.536 0.536 0 1 1 0.612 -0.882 c 0.436 0.307 0.876 0.597 1.322 0.883 a 0.538 0.538 0 0 1 -0.284 0.99 Z m 30.772 -1.544 a 0.537 0.537 0 0 1 -0.408 -0.193 a 0.539 0.539 0 0 1 0.06 -0.759 l 0.117 -0.124 c 0.355 -0.306 0.715 -0.624 1.074 -0.957 a 0.537 0.537 0 1 1 0.73 0.79 c -0.375 0.345 -0.74 0.673 -1.106 0.985 l -0.123 0.102 a 0.537 0.537 0 0 1 -0.344 0.156 Z m -36.326 -2.69 a 0.537 0.537 0 0 1 -0.36 -0.14 c -0.402 -0.37 -0.8 -0.747 -1.18 -1.124 a 0.539 0.539 0 0 1 0.751 -0.769 c 0.376 0.371 0.763 0.737 1.155 1.076 a 0.538 0.538 0 0 1 0.032 0.764 a 0.537 0.537 0 0 1 -0.398 0.194 Z m 41.305 -2.21 a 0.537 0.537 0 0 1 -0.398 -0.899 c 0.355 -0.393 0.715 -0.79 1.074 -1.2 a 0.537 0.537 0 1 1 0.806 0.71 c -0.365 0.415 -0.725 0.818 -1.074 1.21 a 0.537 0.537 0 0 1 -0.408 0.152 v 0.026 Z M 6.724 79.723 a 0.537 0.537 0 0 1 -0.424 -0.204 a 41.79 41.79 0 0 1 -0.989 -1.308 a 0.539 0.539 0 0 1 0.124 -0.753 a 0.536 0.536 0 0 1 0.746 0.124 c 0.312 0.425 0.629 0.85 0.962 1.27 a 0.539 0.539 0 0 1 -0.42 0.871 Z m 50.579 -2.383 a 0.539 0.539 0 0 1 -0.419 -0.877 c 0.338 -0.414 0.677 -0.828 1.015 -1.253 a 0.537 0.537 0 1 1 0.838 0.672 l -1.02 1.259 a 0.537 0.537 0 0 1 -0.414 0.199 Z M 2.9 73.887 a 0.537 0.537 0 0 1 -0.473 -0.312 c -0.257 -0.5 -0.499 -1 -0.714 -1.485 a 0.539 0.539 0 0 1 0.685 -0.72 c 0.133 0.052 0.24 0.154 0.298 0.285 c 0.21 0.462 0.44 0.946 0.687 1.425 a 0.539 0.539 0 0 1 -0.483 0.786 v 0.021 Z m 58.753 -2.028 a 0.537 0.537 0 0 1 -0.424 -0.866 l 0.988 -1.275 a 0.537 0.537 0 1 1 0.848 0.656 l -0.988 1.275 a 0.537 0.537 0 0 1 -0.424 0.188 v 0.022 Z M 0.682 67.286 a 0.537 0.537 0 0 1 -0.537 -0.462 A 17.06 17.06 0 0 1 0 65.16 a 0.538 0.538 0 1 1 1.074 0 c 0.018 0.519 0.063 1.036 0.134 1.55 a 0.539 0.539 0 0 1 -0.462 0.607 l -0.064 -0.032 Z m 65.24 -0.973 a 0.537 0.537 0 0 1 -0.43 -0.867 l 0.984 -1.28 a 0.536 0.536 0 0 1 0.853 0.65 l -0.993 1.265 a 0.537 0.537 0 0 1 -0.414 0.21 v 0.022 Z m 88.49 -2.96 a 0.724 0.724 0 0 1 -0.15 0 a 0.537 0.537 0 0 1 -0.366 -0.666 c 0.134 -0.474 0.28 -0.99 0.424 -1.544 a 0.538 0.538 0 0 1 0.655 -0.388 a 0.537 0.537 0 0 1 0.382 0.662 c -0.145 0.538 -0.29 1.076 -0.43 1.565 a 0.537 0.537 0 0 1 -0.515 0.372 Z m -84.247 -2.592 a 0.536 0.536 0 0 1 -0.424 -0.867 l 0.983 -1.28 a 0.54 0.54 0 1 1 0.854 0.662 l -0.989 1.275 a 0.537 0.537 0 0 1 -0.413 0.183 l -0.01 0.027 Z m -68.924 -0.382 a 0.536 0.536 0 0 1 -0.156 0 a 0.538 0.538 0 0 1 -0.355 -0.673 a 21.47 21.47 0 0 1 0.537 -1.565 a 0.537 0.537 0 1 1 0.994 0.403 c -0.193 0.49 -0.37 0.985 -0.537 1.474 a 0.537 0.537 0 0 1 -0.473 0.334 l -0.01 0.027 Z m 154.782 -3.863 a 0.311 0.311 0 0 1 -0.102 0 a 0.538 0.538 0 0 1 -0.43 -0.624 c 0.097 -0.538 0.188 -1.044 0.28 -1.582 a 0.545 0.545 0 1 1 1.073 0.178 c -0.09 0.538 -0.182 1.076 -0.279 1.614 a 0.537 0.537 0 0 1 -0.542 0.414 Z M 74.46 55.209 a 0.537 0.537 0 0 1 -0.424 -0.872 l 1.004 -1.27 a 0.537 0.537 0 1 1 0.838 0.673 l -0.999 1.264 a 0.537 0.537 0 0 1 -0.408 0.205 h -0.01 Z M 4.436 54.165 a 0.539 0.539 0 0 1 -0.43 -0.855 c 0.323 -0.436 0.666 -0.872 1.02 -1.297 a 0.537 0.537 0 1 1 0.822 0.694 a 22.92 22.92 0 0 0 -0.977 1.237 a 0.537 0.537 0 0 1 -0.435 0.221 Z m 74.408 -4.417 a 0.539 0.539 0 0 1 -0.414 -0.877 l 1.026 -1.248 a 0.537 0.537 0 1 1 0.843 0.667 l -1.02 1.243 a 0.537 0.537 0 0 1 -0.435 0.215 Z m 78.124 -0.161 h -0.043 a 0.538 0.538 0 0 1 -0.494 -0.576 c 0.043 -0.538 0.075 -1.076 0.107 -1.614 a 0.538 0.538 0 0 1 0.564 -0.538 c 0.295 0.018 0.52 0.27 0.505 0.565 a 54.253 54.253 0 0 1 -0.107 1.614 a 0.538 0.538 0 0 1 -0.532 0.549 Z M 9.28 49.13 a 0.537 0.537 0 0 1 -0.338 -0.958 c 0.8 -0.646 1.316 -0.99 1.337 -1.006 a 0.536 0.536 0 0 1 0.59 0.898 s -0.499 0.334 -1.25 0.942 a 0.536 0.536 0 0 1 -0.35 0.124 h 0.011 Z m 74.075 -4.74 a 0.537 0.537 0 0 1 -0.403 -0.888 c 0.35 -0.408 0.704 -0.817 1.074 -1.22 a 0.537 0.537 0 1 1 0.806 0.71 c -0.355 0.403 -0.71 0.806 -1.074 1.215 a 0.537 0.537 0 0 1 -0.414 0.183 h 0.01 Z m 73.742 -1.797 a 0.537 0.537 0 0 1 -0.537 -0.505 a 54.325 54.325 0 0 0 -0.118 -1.614 a 0.54 0.54 0 1 1 1.074 -0.097 c 0.048 0.538 0.091 1.076 0.118 1.614 c 0 0.285 -0.221 0.52 -0.505 0.538 l -0.032 0.064 Z m -69.064 -3.416 a 0.537 0.537 0 0 1 -0.392 -0.904 c 0.365 -0.398 0.735 -0.79 1.106 -1.178 a 0.536 0.536 0 0 1 0.779 0.737 l -1.074 1.173 a 0.537 0.537 0 0 1 -0.44 0.172 h 0.02 Z m 68.092 -3.502 a 0.537 0.537 0 0 1 -0.537 -0.409 a 22.668 22.668 0 0 0 -0.408 -1.533 a 0.539 0.539 0 0 1 1.03 -0.307 c 0.151 0.538 0.296 1.05 0.425 1.587 a 0.539 0.539 0 0 1 -0.398 0.651 l -0.112 0.01 Z m -63.221 -1.512 a 0.537 0.537 0 0 1 -0.376 -0.92 l 1.165 -1.13 a 0.537 0.537 0 1 1 0.763 0.76 c -0.387 0.365 -0.768 0.741 -1.155 1.118 a 0.537 0.537 0 0 1 -0.419 0.172 h 0.022 Z m 5.14 -4.745 a 0.537 0.537 0 0 1 -0.355 -0.941 l 1.235 -1.076 a 0.539 0.539 0 1 1 0.693 0.828 c -0.408 0.34 -0.817 0.689 -1.225 1.039 a 0.537 0.537 0 0 1 -0.37 0.15 h 0.021 Z m 55.197 -0.575 c -0.247 -0.468 -0.505 -0.931 -0.779 -1.378 a 0.537 0.537 0 1 1 0.918 -0.554 c 0.285 0.463 0.537 0.947 0.811 1.431 a 0.539 0.539 0 0 1 -0.478 0.791 a 0.537 0.537 0 0 1 -0.472 -0.29 Z M 103.5 25.055 a 0.539 0.539 0 0 1 -0.322 -0.974 c 0.44 -0.322 0.88 -0.634 1.32 -0.946 a 0.537 0.537 0 0 1 0.845 0.394 a 0.54 0.54 0 0 1 -0.227 0.488 l -1.3 0.93 a 0.536 0.536 0 0 1 -0.338 0.108 h 0.022 Z m 46.132 -1.56 a 0.537 0.537 0 0 1 -0.381 -0.161 c -0.359 -0.359 -0.74 -0.717 -1.144 -1.076 a 0.536 0.536 0 1 1 0.709 -0.807 c 0.408 0.36 0.81 0.742 1.197 1.135 a 0.539 0.539 0 0 1 0 0.759 a 0.537 0.537 0 0 1 -0.403 0.15 h 0.022 Z m -40.279 -2.28 a 0.537 0.537 0 0 1 -0.274 -1.001 c 0.473 -0.275 0.946 -0.538 1.418 -0.797 a 0.54 0.54 0 0 1 0.81 0.474 a 0.542 0.542 0 0 1 -0.273 0.468 c -0.467 0.253 -0.929 0.538 -1.39 0.785 a 0.536 0.536 0 0 1 -0.344 0.07 h 0.053 Z m 34.737 -1.894 a 0.504 0.504 0 0 1 -0.258 -0.07 c -0.451 -0.248 -0.924 -0.49 -1.407 -0.716 a 0.539 0.539 0 0 1 0.462 -0.974 c 0.499 0.237 0.988 0.49 1.46 0.748 a 0.538 0.538 0 0 1 -0.257 1.012 Z m -28.49 -1.195 a 0.537 0.537 0 0 1 -0.2 -1.038 c 0.505 -0.204 1.01 -0.398 1.52 -0.581 a 0.537 0.537 0 0 1 0.366 1.011 c -0.495 0.178 -0.989 0.366 -1.483 0.57 a 0.536 0.536 0 0 1 -0.247 0.038 h 0.043 Z m 22.045 -1.452 a 0.777 0.777 0 0 1 -0.156 0 c -0.505 -0.15 -1.02 -0.29 -1.53 -0.41 a 0.553 0.553 0 0 1 0.252 -1.075 c 0.537 0.129 1.074 0.269 1.611 0.425 a 0.542 0.542 0 0 1 -0.15 1.076 l -0.027 -0.016 Z m -15.456 -0.597 a 0.537 0.537 0 0 1 -0.118 -1.066 c 0.537 -0.107 1.074 -0.21 1.61 -0.29 a 0.543 0.543 0 0 1 0.59 0.735 a 0.544 0.544 0 0 1 -0.423 0.34 c -0.537 0.082 -1.036 0.178 -1.557 0.286 a 0.365 0.365 0 0 1 -0.102 -0.005 Z m 8.555 -0.603 h -0.038 a 32.41 32.41 0 0 0 -1.579 -0.06 a 0.538 0.538 0 0 1 0 -1.075 c 0.537 0 1.074 0.027 1.638 0.06 a 0.538 0.538 0 0 1 -0.032 1.075 h 0.01 Z" stroke-linecap="round"/>
</g>
		<g transform="matrix(1 0 0 1 13.625 -3.493)">
<path style="stroke: none; stroke-width: 1; stroke-dasharray: none; stroke-linecap: butt; stroke-dashoffset: 0; stroke-linejoin: miter; stroke-miterlimit: 4; is-custom-font: none; font-file-url: none; fill: rgb(57,71,95); fill-rule: nonzero; opacity: 1;" transform=" translate(-94.625, -50.507)" d="M 119.847 100.221 H 58.146 L 70.332 0.793 h 55.025 l 5.747 7.601 z" stroke-linecap="round"/>
</g>
		<g transform="matrix(1 0 0 1 7.411 -3.493)">
<path style="stroke: none; stroke-width: 1; stroke-dasharray: none; stroke-linecap: butt; stroke-dashoffset: 0; stroke-linejoin: miter; stroke-miterlimit: 4; is-custom-font: none; font-file-url: none; fill: rgb(97,114,141); fill-rule: nonzero; opacity: 1;" transform=" translate(-88.411, -50.507)" d="M 113.172 100.221 H 51.465 L 63.651 0.793 h 61.706 z" stroke-linecap="round"/>
</g>
		<g transform="matrix(1 0 0 1 7.75 -8.4935)">
<path style="stroke: none; stroke-width: 1; stroke-dasharray: none; stroke-linecap: butt; stroke-dashoffset: 0; stroke-linejoin: miter; stroke-miterlimit: 4; is-custom-font: none; font-file-url: none; fill: rgb(24,31,39); fill-rule: nonzero; opacity: 1;" transform=" translate(-88.75, -45.5065)" d="M 110.132 81.354 H 58.576 l 8.791 -71.695 h 51.557 z" stroke-linecap="round"/>
</g>
		<g transform="matrix(1 0 0 1 19.1915 -2.7025)">
<path style="stroke: none; stroke-width: 1; stroke-dasharray: none; stroke-linecap: butt; stroke-dashoffset: 0; stroke-linejoin: miter; stroke-miterlimit: 4; is-custom-font: none; font-file-url: none; fill: rgb(30,37,46); fill-rule: nonzero; opacity: 1;" transform=" translate(-100.1915, -51.2975)" d="m 92.743 50.055 l 14.897 0.177 l -0.29 2.308 l -14.607 -0.252 z" stroke-linecap="round"/>
</g>
		<g transform="matrix(1 0 0 1 4.656 50.1105)">
<path style="stroke: none; stroke-width: 1; stroke-dasharray: none; stroke-linecap: butt; stroke-dashoffset: 0; stroke-linejoin: miter; stroke-miterlimit: 4; is-custom-font: none; font-file-url: none; fill: rgb(57,71,95); fill-rule: nonzero; opacity: 1;" transform=" translate(-85.656, -104.1105)" d="m 51.465 100.221 l 7.422 6.864 l 60.037 0.915 l 0.923 -7.779 z" stroke-linecap="round"/>
</g>
		<g transform="matrix(1 0 0 1 16.694 -13.2385)">
<path style="stroke: none; stroke-width: 1; stroke-dasharray: none; stroke-linecap: butt; stroke-dashoffset: 0; stroke-linejoin: miter; stroke-miterlimit: 4; is-custom-font: none; font-file-url: none; fill: rgb(45,57,75); fill-rule: nonzero; opacity: 1;" transform=" translate(-97.6939, -40.7615)" d="M 99.096 29.058 s 2.572 0.183 3.888 5.03 c 1.316 4.847 0.865 18.377 0.865 18.377 l -11.096 -0.177 s -5.537 -20.137 6.343 -23.23 Z" stroke-linecap="round"/>
</g>
		<g transform="matrix(1 0 0 1 -44.811 -24.52)">
<path style="stroke: none; stroke-width: 1; stroke-dasharray: none; stroke-linecap: butt; stroke-dashoffset: 0; stroke-linejoin: miter; stroke-miterlimit: 4; is-custom-font: none; font-file-url: none; fill: rgb(73,208,149); fill-rule: nonzero; opacity: 1;" transform=" translate(-36.189, -29.48)" d="M 5.42 32.843 L 45.778 0 l 21.18 26.119 L 26.603 58.96 z" stroke-linecap="round"/>
</g>
		<g transform="matrix(1 0 0 1 -42.7265 -37.2645)">
<path style="stroke: none; stroke-width: 1; stroke-dasharray: none; stroke-linecap: butt; stroke-dashoffset: 0; stroke-linejoin: miter; stroke-miterlimit: 4; is-custom-font: none; font-file-url: none; fill: rgb(255,255,255); fill-rule: nonzero; opacity: 1;" transform=" translate(-38.2735, -16.7355)" d="M 27.49 21.931 L 45.56 7.226 l 3.497 4.313 l -18.07 14.706 z" stroke-linecap="round"/>
</g>
		<g transform="matrix(1 0 0 1 -39.5058 -18.4448)">
<path style="stroke: none; stroke-width: 1; stroke-dasharray: none; stroke-linecap: butt; stroke-dashoffset: 0; stroke-linejoin: miter; stroke-miterlimit: 4; is-custom-font: none; font-file-url: none; fill: rgb(255,255,255); fill-rule: nonzero; opacity: 0.46;" transform=" translate(-41.4943, -35.5552)" d="m 25.272 45.175 l 5.338 -4.345 a 2.772 2.772 0 0 1 3.902 0.404 a 2.781 2.781 0 0 1 -0.404 3.91 l -5.338 4.344 a 2.772 2.772 0 0 1 -3.903 -0.404 a 2.781 2.781 0 0 1 0.405 -3.91 Z M 37.33 35.365 l 16.89 -13.743 a 2.772 2.772 0 0 1 3.902 0.404 a 2.781 2.781 0 0 1 -0.405 3.909 L 40.83 39.679 a 2.772 2.772 0 0 1 -3.903 -0.404 a 2.781 2.781 0 0 1 0.405 -3.91 Z" stroke-linecap="round"/>
</g>
		<g transform="matrix(1 0 0 1 -63.063 -20.364)">
<ellipse style="stroke: none; stroke-width: 1; stroke-dasharray: none; stroke-linecap: butt; stroke-dashoffset: 0; stroke-linejoin: miter; stroke-miterlimit: 4; is-custom-font: none; font-file-url: none; fill: rgb(255,255,255); fill-rule: nonzero; opacity: 0.3;" cx="0" cy="0" rx="3.673" ry="3.68"/>
</g>
		<g transform="matrix(1 0 0 1 -59.336 -23.716)">
<ellipse style="stroke: none; stroke-width: 1; stroke-dasharray: none; stroke-linecap: butt; stroke-dashoffset: 0; stroke-linejoin: miter; stroke-miterlimit: 4; is-custom-font: none; font-file-url: none; fill: rgb(255,255,255); fill-rule: nonzero; opacity: 0.3;" cx="0" cy="0" rx="3.673" ry="3.68"/>
</g>
		<g transform="matrix(1 0 0 1 0.0915 -1.5348)">
<path style="stroke: none; stroke-width: 1; stroke-dasharray: none; stroke-linecap: butt; stroke-dashoffset: 0; stroke-linejoin: miter; stroke-miterlimit: 4; is-custom-font: none; font-file-url: none; fill: rgb(186,214,250); fill-rule: nonzero; opacity: 1;" transform=" translate(-81.0915, -52.4652)" d="M 99.096 29.058 s -5.838 2.103 -3.803 18.581 c 1.493 12.073 -3.55 28.056 -11.004 28.25 c -7.454 0.193 -21.202 -0.463 -21.202 -0.463 s 7.159 -18.56 5.676 -34.145 a 14.786 14.786 0 0 1 0.763 -6.456 c 0.87 -2.373 2.487 -4.842 5.494 -5.245 c 6.004 -0.818 24.076 -0.522 24.076 -0.522 Z" stroke-linecap="round"/>
</g>
		<g transform="matrix(1 0 0 1 -15.953 15.2863)">
<path style="stroke: none; stroke-width: 1; stroke-dasharray: none; stroke-linecap: butt; stroke-dashoffset: 0; stroke-linejoin: miter; stroke-miterlimit: 4; is-custom-font: none; font-file-url: none; fill: rgb(84,111,141); fill-rule: nonzero; opacity: 1;" transform=" translate(-65.047, -69.2863)" d="m 58.957 76.63 l 26.342 -0.537 s -4.017 -3.992 -4.27 -14.154 l -36.234 0.538 a 31.494 31.494 0 0 0 2.841 7.531 a 12.547 12.547 0 0 0 11.32 6.623 Z" stroke-linecap="round"/>
</g>
		<g transform="matrix(1 0 0 1 10.0055 -36.1455)">
<path style="stroke: none; stroke-width: 1; stroke-dasharray: none; stroke-linecap: butt; stroke-dashoffset: 0; stroke-linejoin: miter; stroke-miterlimit: 4; is-custom-font: none; font-file-url: none; fill: rgb(45,57,75); fill-rule: nonzero; opacity: 1;" transform=" translate(-91.0055, -17.8545)" d="m 78.21 14.834 l -0.918 6.041 h 26.621 l 0.806 -6.041 z" stroke-linecap="round"/>
</g>
		<g transform="matrix(1 0 0 1 0.477 36.1979)">
<path style="stroke: none; stroke-width: 1; stroke-dasharray: none; stroke-linecap: butt; stroke-dashoffset: 0; stroke-linejoin: miter; stroke-miterlimit: 4; is-custom-font: none; font-file-url: none; fill: rgb(255,255,255); fill-rule: nonzero; opacity: 0.48;" transform=" translate(-81.477, -90.1979)" d="M 85.54 86.19 c -2.872 -2.517 -7.416 -2.022 -9.446 1.222 a 4.955 4.955 0 0 0 -0.8 2.647 c 0 3.98 2.744 6.59 8.227 5.492 c 4.184 -0.839 5.779 -6.073 2.02 -9.36 Z" stroke-linecap="round"/>
</g>
		<g transform="matrix(1 0 0 1 66.188 27.542)">
<ellipse style="stroke: none; stroke-width: 1; stroke-dasharray: none; stroke-linecap: butt; stroke-dashoffset: 0; stroke-linejoin: miter; stroke-miterlimit: 4; is-custom-font: none; font-file-url: none; fill: rgb(73,208,149); fill-rule: nonzero; opacity: 1;" cx="0" cy="0" rx="14.812" ry="14.837"/>
</g>
		<g transform="matrix(1 0 0 1 0.5072 -7.8202)">
<path style="stroke: none; stroke-width: 1; stroke-dasharray: none; stroke-linecap: butt; stroke-dashoffset: 0; stroke-linejoin: miter; stroke-miterlimit: 4; is-custom-font: none; font-file-url: none; fill: rgb(255,255,255); fill-rule: nonzero; opacity: 1;" transform=" translate(-81.5072, -46.1798)" d="M 73.731 35.75 a 0.537 0.537 0 0 1 -0.038 -1.076 c 0.113 0 11.343 -0.828 17.363 -0.29 a 0.54 0.54 0 0 1 -0.096 1.076 c -5.908 -0.538 -17.079 0.274 -17.186 0.285 l -0.043 0.005 Z m -0.891 7.279 a 0.538 0.538 0 0 1 -0.038 -1.076 c 0.113 0 11.342 -0.828 17.363 -0.29 a 0.54 0.54 0 0 1 -0.097 1.076 c -5.907 -0.538 -17.073 0.28 -17.185 0.285 l -0.043 0.005 Z m -0.102 7.564 a 0.538 0.538 0 0 1 -0.043 -1.076 c 0.112 0 11.347 -0.829 17.362 -0.29 a 0.54 0.54 0 0 1 -0.096 1.075 c -5.908 -0.538 -17.073 0.28 -17.186 0.286 l -0.037 0.005 Z m -0.715 7.564 a 0.537 0.537 0 0 1 -0.037 -1.076 c 0.112 0 11.342 -0.829 17.362 -0.285 a 0.54 0.54 0 0 1 -0.096 1.076 c -5.908 -0.538 -17.073 0.28 -17.186 0.285 h -0.043 Z" stroke-linecap="round"/>
</g>
</g>
</g>
</svg>