<svg width="78" height="29" xmlns="http://www.w3.org/2000/svg"><defs><filter id="a"><feColorMatrix in="SourceGraphic" values="0 0 0 0 0.352941 0 0 0 0 0.400000 0 0 0 0 0.541176 0 0 0 1.000000 0"/></filter></defs><g transform="translate(-136)" filter="url(#a)" fill="none" fill-rule="evenodd"><path d="M149.085 16.359c.181-.001.357.006.526.02l.017-.01c.218.028.65.084 1.05.212.403.125.768.322 1.053.524.276.2.478.408.603.661.126.253.19.554.227 1.046.025.494.025 1.178-.088 2.455a88.802 88.802 0 01-.516 4.338c-.176 1.203-.302 1.729-.465 2.117-.164.401-.378.664-.617.852a2.01 2.01 0 01-.78.363c-.264.063-.503.063-.73.063-.226 0-.44 0-.73-.063-.289-.062-.666-.175-.943-.4a1.534 1.534 0 01-.316-.338c-.485-.494-.699-1.424-1.02-3.649-.532-3.683-.648-5.962-.34-6.685.409-.957 1.517-1.5 3.069-1.506zM149.098 0c3.639 0 6.928 1.4 9.433 4.02 1.906 1.977 2.977 4.069 3.526 6.824.187.918.187 3.419.012 4.45a13.21 13.21 0 01-5.046 8.23c-.947.713-3.265 1.959-3.638 1.959-.137 0-.15-.142-.088-.715.113-.92.225-1.111.748-1.33.835-.348 2.255-1.357 3.127-2.23a11.87 11.87 0 003.128-5.494c.324-1.28.286-4.127-.075-5.445-1.134-4.19-4.56-7.446-8.76-8.316-1.22-.249-3.438-.249-4.672 0-4.248.87-7.762 4.288-8.834 8.59-.286 1.168-.286 4.015 0 5.183.71 2.847 2.555 5.457 4.972 7.01.473.312 1.046.635 1.283.734.524.224.636.41.735 1.33.063.56.05.721-.087.721-.087 0-.723-.273-1.395-.596l-.063-.046c-3.85-1.89-6.317-5.087-7.214-9.34-.224-1.098-.262-3.717-.05-4.724.56-2.704 1.632-4.818 3.414-6.688 2.567-2.7 5.869-4.127 9.544-4.127zm29.381 17.319c1.89 0 3.05 1.25 3.05 3.31 0 2.066-1.153 3.31-3.05 3.31-1.903 0-3.051-1.244-3.051-3.31 0-2.053 1.166-3.31 3.051-3.31zm28.166 0c1.508 0 2.454.669 2.558 1.827h-1.351c-.105-.448-.528-.733-1.201-.733-.655 0-1.148.314-1.148.773 0 .361.301.582.94.728l1.119.256c1.212.273 1.775.797 1.775 1.733 0 1.222-1.12 2.037-2.703 2.037-1.584 0-2.582-.687-2.692-1.845h1.421c.14.472.586.75 1.305.75.725 0 1.23-.32 1.23-.79 0-.361-.273-.588-.876-.722l-1.125-.262c-1.218-.279-1.792-.843-1.792-1.803 0-1.152 1.044-1.95 2.54-1.95zm-13.375 0c1.63 0 2.616.93 2.766 2.269h-1.368c-.134-.617-.61-1.059-1.398-1.059-.986 0-1.572.762-1.572 2.083 0 1.338.591 2.118 1.572 2.118.748 0 1.247-.355 1.398-1.019h1.368c-.156 1.333-1.154 2.229-2.76 2.229-1.909 0-3.034-1.234-3.034-3.328 0-2.066 1.12-3.293 3.028-3.293zm6.705 0c1.63 0 2.546.797 2.546 2.147v4.346h-1.386v-.873h-.099c-.353.617-1.05.977-1.879.977-1.224 0-2.1-.744-2.1-1.908 0-1.152.865-1.815 2.407-1.908L201.1 20v-.535c0-.623-.417-.972-1.195-.972-.661 0-1.113.233-1.247.663h-1.357c.116-1.123 1.166-1.838 2.674-1.838zm-11.235-2.333v8.826h-1.392v-1.007h-.099c-.36.698-1.09 1.111-1.972 1.111-1.607 0-2.61-1.268-2.61-3.293 0-2.013 1.009-3.28 2.61-3.28.87 0 1.59.418 1.926 1.116h.098v-3.473h1.439zm23.903.902v1.6H214v1.152h-1.357v3.124c0 .628.267.907.87.907.203 0 .313-.011.487-.029v1.129c-.209.04-.476.07-.754.07-1.456 0-2.036-.495-2.036-1.728V18.64h-1.003v-1.152h1.003v-1.6h1.433zm-41.037-.472c1.67 0 2.813 1.147 2.813 2.84 0 1.664-1.184 2.804-2.877 2.804h-1.816v2.752h-1.496v-8.396zm29.494 5.557l-1.433.093c-.806.052-1.183.343-1.183.86 0 .536.458.856 1.096.856.87 0 1.52-.564 1.52-1.303v-.506zm-22.621-2.444c-1.003 0-1.578.774-1.578 2.1 0 1.333.575 2.1 1.578 2.1 1.003 0 1.572-.767 1.572-2.1 0-1.326-.574-2.1-1.572-2.1zm7.245.04c-.98 0-1.584.78-1.584 2.06 0 1.286.597 2.06 1.584 2.06.991 0 1.595-.78 1.595-2.06 0-1.268-.61-2.06-1.595-2.06zM151.03 4.532c4.336.963 7.413 5.295 6.815 9.593-.237 1.731-.835 3.153-1.894 4.475-.523.667-1.794 1.787-2.018 1.787-.034 0-.068-.35-.074-.8V18.51l.647-.77c2.442-2.92 2.268-6.996-.399-9.672-1.034-1.041-2.23-1.653-3.775-1.935-.997-.184-1.209-.184-2.255-.012-1.589.258-2.82.872-3.913 1.951-2.679 2.648-2.853 6.746-.41 9.668l.642.77v.945c0 .522-.041.945-.092.945-.05 0-.411-.249-.798-.56l-.052-.017c-1.296-1.032-2.442-2.862-2.915-4.657-.287-1.084-.287-3.145.012-4.226.785-2.919 2.94-5.181 5.93-6.244 1.023-.36 3.29-.441 4.549-.164zm20.181 12.142h-1.485v3.142h1.48c1.067 0 1.693-.559 1.693-1.56 0-1.03-.609-1.582-1.688-1.582zM150.42 9.288a3.12 3.12 0 011.977 2.9 3.116 3.116 0 01-3.119 3.113 3.118 3.118 0 01-2.664-1.495l-.054-.072c-.323-.481-.494-1.069-.5-1.738 0-1.138.635-2.13 1.731-2.71.698-.366 1.931-.366 2.63.002zm37.08-3.86c1.606 0 2.615 1.244 2.615 3.286 0 2.03-.997 3.287-2.598 3.287-.91 0-1.613-.395-1.937-1.07h-.1v3.083h-1.438V5.532h1.387v1.053h.098c.366-.722 1.102-1.158 1.972-1.158zm-7.518 0c1.607 0 2.616 1.244 2.616 3.286 0 2.03-.997 3.287-2.598 3.287-.911 0-1.613-.395-1.938-1.07h-.098v3.083h-1.439V5.532h1.387v1.053h.098c.366-.722 1.102-1.158 1.972-1.158zm17.558-.024c1.81 0 2.894 1.204 2.894 3.211v.466h-4.431v.075c.034 1.06.643 1.722 1.589 1.722.713 0 1.206-.261 1.415-.733h1.363c-.26 1.158-1.322 1.88-2.819 1.88-1.867 0-2.993-1.24-2.993-3.288 0-2.047 1.143-3.333 2.982-3.333zm-4.484-2.333v8.826h-1.438V3.07h1.438zm-20.794.43l2.976 8.396h-1.607l-.708-2.147h-3.08l-.719 2.147h-1.514l2.97-8.396h1.682zm7.274 3.154c-.98 0-1.595.79-1.601 2.06.006 1.273.615 2.059 1.595 2.059.997 0 1.59-.774 1.59-2.06s-.598-2.06-1.584-2.06zm7.517 0c-.98 0-1.595.79-1.601 2.06.006 1.273.615 2.059 1.595 2.059.998 0 1.59-.774 1.59-2.06s-.598-2.06-1.584-2.06zM171.437 5.1h-.098l-1.149 3.462h2.384L171.437 5.1zm26.096 1.449c-.859 0-1.462.617-1.526 1.547h2.988c-.03-.942-.598-1.547-1.462-1.547z" fill="#FFF" fill-rule="nonzero"/></g></svg>