<svg width="232" height="104" xmlns="http://www.w3.org/2000/svg"><path d="M4 96a4 4 0 110 8 4 4 0 010-8zm224 0a4 4 0 110 8 4 4 0 010-8zm-32 0a4 4 0 110 8 4 4 0 010-8zm-32 0a4 4 0 110 8 4 4 0 010-8zm-32 0a4 4 0 110 8 4 4 0 010-8zm-32 0a4 4 0 110 8 4 4 0 010-8zm-32 0a4 4 0 110 8 4 4 0 010-8zm-32 0a4 4 0 110 8 4 4 0 010-8zm192-32a4 4 0 110 8 4 4 0 010-8zM4 64a4 4 0 110 8 4 4 0 010-8zm32 0a4 4 0 110 8 4 4 0 010-8zm32 0a4 4 0 110 8 4 4 0 010-8zm32 0a4 4 0 110 8 4 4 0 010-8zm32 0a4 4 0 110 8 4 4 0 010-8zm32 0a4 4 0 110 8 4 4 0 010-8zm32 0a4 4 0 110 8 4 4 0 010-8zm32-32a4 4 0 110 8 4 4 0 010-8zm-32 0a4 4 0 110 8 4 4 0 010-8zm-32 0a4 4 0 110 8 4 4 0 010-8zm-32 0a4 4 0 110 8 4 4 0 010-8zm-32 0a4 4 0 110 8 4 4 0 010-8zm-32 0a4 4 0 110 8 4 4 0 010-8zm-32 0a4 4 0 110 8 4 4 0 010-8zM4 32a4 4 0 110 8 4 4 0 010-8zM36 0a4 4 0 110 8 4 4 0 010-8zm32 0a4 4 0 110 8 4 4 0 010-8zm32 0a4 4 0 110 8 4 4 0 010-8zm32 0a4 4 0 110 8 4 4 0 010-8zm32 0a4 4 0 110 8 4 4 0 010-8zm32 0a4 4 0 110 8 4 4 0 010-8zm32 0a4 4 0 110 8 4 4 0 010-8zM4 0a4 4 0 110 8 4 4 0 010-8z" fill="#54E6AF" fill-rule="evenodd"/></svg>